<svg width="544.97" height="222.37" version="1.1" viewBox="0 0 544.96802 222.37067" xml:space="preserve" xmlns="http://www.w3.org/2000/svg" xmlns:cc="http://creativecommons.org/ns#" xmlns:dc="http://purl.org/dc/elements/1.1/" xmlns:rdf="http://www.w3.org/1999/02/22-rdf-syntax-ns#"><defs><clipPath id="clipPath18"><path d="M 0,166.778 H 408.726 V 0 H 0 Z"></path></clipPath></defs>
<g transform="matrix(1.3333 0 0 -1.3333 0 222.37)"><g clip-path="url(#clipPath18)">
<g transform="translate(37.075 138.13)">
<path d="m0 0c0.223 0 0.448-3e-3 0.672-8e-3 8.123-0.189 16.16-3.861 22.051-10.075 5.794-6.111 8.98-14.149 8.743-22.053-0.256-8.492-3.621-16.424-9.477-22.335-5.879-5.934-13.635-9.203-21.841-9.203-0.1 0-0.202 1e-3 -0.302 2e-3 -8.252 0.081-15.947 3.384-21.666 9.3-5.922 6.127-9.067 14.321-8.856 23.075 0.416 17.257 14.177 31.297 30.676 31.297m-4.143 4.652c-7.165-0.762-14.168-4.066-19.721-9.303-5.536-5.221-9.415-12.146-10.922-19.499-2.321-11.32 0.536-22.946 7.838-31.897 6.776-8.305 16.604-13.069 26.965-13.069 0.375 0 0.756 6e-3 1.133 0.018 0.354 0.012 0.714 0.017 1.07 0.017 4.083 0 8.208-0.756 11.618-2.128 7.118-2.865 12.924-8.304 16.348-15.315 3.443-7.049 4.165-15.073 2.032-22.593-3.77-13.292-15.931-22.576-29.572-22.576-4.198 0-8.272 0.889-12.112 2.642-11.575 5.285-17.783 14.004-18.451 25.912-0.149 2.661-1.056 2.661-1.856 2.661-0.409 0-0.888-0.061-1.423-0.182-0.905-0.205-1.503-0.34-1.509-3.259-0.017-7.669 3.388-15.315 9.589-21.53 7.091-7.108 16.664-11.184 26.263-11.184 4.018 0 7.959 0.719 11.712 2.137 13.102 4.952 21.096 14.619 23.12 27.957 2.328 15.349-2.892 27.729-15.517 36.797-0.635 0.457-1.193 0.945-1.784 1.462-0.268 0.234-0.55 0.48-0.856 0.739l-2.217 1.866 2.163 1.929c0.297 0.265 0.553 0.505 0.786 0.724 0.5 0.47 0.973 0.913 1.538 1.311 6.917 4.86 11.671 11.856 13.749 20.229 1.977 7.962 1.301 16.549-1.902 24.179-2.769 6.595-7.482 12.179-13.631 16.149-6.097 3.937-13.17 6.018-20.454 6.018-1.329 0-2.674-0.071-3.997-0.212" fill="#9dd25d"></path>
</g>
<g transform="translate(37.075 138.13)">
<path d="m0 0c0.223 0 0.448-3e-3 0.672-8e-3 8.123-0.189 16.16-3.861 22.051-10.075 5.794-6.111 8.98-14.149 8.743-22.053-0.256-8.492-3.621-16.424-9.477-22.335-5.879-5.934-13.635-9.203-21.841-9.203-0.1 0-0.202 1e-3 -0.302 2e-3 -8.252 0.081-15.947 3.384-21.666 9.3-5.922 6.127-9.067 14.321-8.856 23.075 0.416 17.257 14.177 31.297 30.676 31.297zm-4.143 4.652c-7.165-0.762-14.168-4.066-19.721-9.303-5.536-5.221-9.415-12.146-10.922-19.499-2.321-11.32 0.536-22.946 7.838-31.897 6.776-8.305 16.604-13.069 26.965-13.069 0.375 0 0.756 6e-3 1.133 0.018 0.354 0.012 0.714 0.017 1.07 0.017 4.083 0 8.208-0.756 11.618-2.128 7.118-2.865 12.924-8.304 16.348-15.315 3.443-7.049 4.165-15.073 2.032-22.593-3.77-13.292-15.931-22.576-29.572-22.576-4.198 0-8.272 0.889-12.112 2.642-11.575 5.285-17.783 14.004-18.451 25.912-0.149 2.661-1.056 2.661-1.856 2.661-0.409 0-0.888-0.061-1.423-0.182-0.905-0.205-1.503-0.34-1.509-3.259-0.017-7.669 3.388-15.315 9.589-21.53 7.091-7.108 16.664-11.184 26.263-11.184 4.018 0 7.959 0.719 11.712 2.137 13.102 4.952 21.096 14.619 23.12 27.957 2.328 15.349-2.892 27.729-15.517 36.797-0.635 0.457-1.193 0.945-1.784 1.462-0.268 0.234-0.55 0.48-0.856 0.739l-2.217 1.866 2.163 1.929c0.297 0.265 0.553 0.505 0.786 0.724 0.5 0.47 0.973 0.913 1.538 1.311 6.917 4.86 11.671 11.856 13.749 20.229 1.977 7.962 1.301 16.549-1.902 24.179-2.769 6.595-7.482 12.179-13.631 16.149-6.097 3.937-13.17 6.018-20.454 6.018-1.329 0-2.674-0.071-3.997-0.212z" fill="none" stroke="#9dd25d" stroke-miterlimit="10" stroke-width="3">

</path>
</g>
<g transform="translate(143.6 84.037)">
<path d="m0 0c-5.87-6.102-13.747-9.512-22.181-9.603-0.112-1e-3 -0.223-2e-3 -0.335-2e-3 -17.147 0-31.159 14.139-31.234 31.517-0.038 8.568 3.172 16.62 9.038 22.673 5.88 6.067 13.757 9.436 22.179 9.486h0.174c16.814 0 31.156-14.357 31.317-31.351 0.081-8.562-3.1-16.631-8.958-22.72m-22.476 58.937h-0.17c-9.717-0.044-18.776-3.885-25.509-10.816-6.749-6.946-10.456-16.265-10.44-26.242 0.034-20.273 16.298-36.766 36.254-36.766h0.085c9.889 0.023 19.017 3.866 25.703 10.822 6.709 6.98 10.394 16.5 10.377 26.805-0.034 19.959-16.318 36.197-36.3 36.197" fill="#3d95c4">

</path>
</g>
<g transform="translate(143.6 84.037)">
<path d="m0 0c-5.87-6.102-13.747-9.512-22.181-9.603-0.112-1e-3 -0.223-2e-3 -0.335-2e-3 -17.147 0-31.159 14.139-31.234 31.517-0.038 8.568 3.172 16.62 9.038 22.673 5.88 6.067 13.757 9.436 22.179 9.486h0.174c16.814 0 31.156-14.357 31.317-31.351 0.081-8.562-3.1-16.631-8.958-22.72zm-22.476 58.937h-0.17c-9.717-0.044-18.776-3.885-25.509-10.816-6.749-6.946-10.456-16.265-10.44-26.242 0.034-20.273 16.298-36.766 36.254-36.766h0.085c9.889 0.023 19.017 3.866 25.703 10.822 6.709 6.98 10.394 16.5 10.377 26.805-0.034 19.959-16.318 36.197-36.3 36.197z" fill="none" stroke="#3d95c4" stroke-miterlimit="10" stroke-width="3"></path>
</g>
<g id="logo_black">
<g transform="translate(226.83 164.95)">
<path d="m0 0c-0.034 0-0.067-9e-3 -0.101-0.01-0.57 0.011-1.151-0.016-1.716-0.016-8.184 3e-3 -19.879 0.046-31.047 0.075-11.167-0.029-22.862-0.072-31.047-0.075-0.564 0-1.146 0.027-1.716 0.016-0.034 1e-3 -0.066 0.01-0.101 0.01-1.431 0-2.591-1.16-2.591-2.591s1.16-2.591 2.591-2.591c0.054 0 0.103 0.012 0.155 0.015 1.621-0.018 16.998-0.063 25.995 0.037 3.116 0.034 4.058-0.74 4.131-3.676v-96.301c-1e-3 -0.034-0.01-0.066-0.01-0.1 0-1.431 1.16-2.591 2.591-2.591h2e-3 2e-3c1.432 0 2.592 1.16 2.592 2.591 0 0.034-9e-3 0.066-0.01 0.1v96.301c0.072 2.936 1.014 3.71 4.131 3.676 8.996-0.1 24.373-0.055 25.994-0.037 0.052-3e-3 0.102-0.015 0.155-0.015 1.431 0 2.591 1.16 2.591 2.591s-1.16 2.591-2.591 2.591z" fill="" stroke="" stroke-miterlimit="10" stroke-width="3">
</path>
</g>
<g transform="translate(275.9 102.68)"></g>
<g transform="translate(275.9 102.68)">
<path d="m0 0c14.551 0.339 28.115 12.982 29.436 27.384 1.775 19.35-12.208 34.745-31.699 34.854-8.536 0.048-17.073 0.021-25.61 3e-3 -4.386-9e-3 -4.816-0.452-4.816-4.836 0-1.978 0.026-100.3 0.026-100.3-1e-3 -0.033-0.01-0.064-0.01-0.098 0-1.402 1.137-2.539 2.539-2.539h3e-3 2e-3c1.402 0 2.539 1.137 2.539 2.539 0 0.034-8e-3 0.065-0.01 0.098 0 0 0.016 95.424 0.014 95.955-0.016 3.405 0.996 4.1 4.194 4.069 10.025-0.098 14.263 0.02 21.392-0.124 2.552-0.052 5.167-0.406 7.626-1.084 12.381-3.415 20.209-15.532 18.619-28.579-1.443-11.853-12.723-21.883-25.013-22.139-5.292-0.11-10.593 0.081-15.881-0.109-1.444-0.051-3.706-0.107-4.282-1.515-0.569-1.393 0.97-3.032 1.968-4.04 14.138-14.277 42.997-43.273 44.797-44.481 0.758-0.508 2.286-0.051 2.839 0.535 0.528 0.56 0.915 1.567 0.249 2.821-0.526 0.992-40.293 40.716-41.164 41.64 0.532-0.139 8.609-0.14 12.242-0.055z" fill="" stroke="" stroke-miterlimit="10" stroke-width="3">
</path>
</g>
<g transform="translate(407.23 108.57)">
<path d="m0 0h-22.281c-0.034 1e-3 -0.065 0.01-0.099 0.01-1.402 0-2.539-1.137-2.539-2.539v-3e-3 -2e-3c0-1.402 1.137-2.539 2.539-2.539 0.034 0 0.065 9e-3 0.099 0.01h17.027c5e-3 -0.542 0.093-15.074-0.099-24.795-0.031-1.587-0.914-3.65-2.109-4.647-15.175-12.659-32.342-15.31-50.271-7.654-27.098 11.572-37.516 43.997-22.554 69.339 8.876 15.034 22.368 23.334 40.1 23.933 12.852 0.434 23.688-4.717 33.501-12.524 0.922-0.734 3.482-3.191 5.55-1.123 1.856 1.856-0.026 3.367-1.437 4.778-17.597 17.597-46.692 19.233-66.715 4.376-18.09-13.423-25.842-31.577-21.814-54.11 3.237-18.104 13.777-30.814 30.001-38.869 11.05-5.485 22.793-6.309 34.715-3.456 8.818 2.11 16.849 5.921 23.571 12.212 1.935 1.812 2.803 3.757 2.807 6.515 8e-3 5.082 8e-3 31.088 8e-3 31.088" fill="#fff"></path>
</g>
<g transform="translate(407.23 108.57)">
<path d="m0 0h-22.281c-0.034 1e-3 -0.065 0.01-0.099 0.01-1.402 0-2.539-1.137-2.539-2.539v-3e-3 -2e-3c0-1.402 1.137-2.539 2.539-2.539 0.034 0 0.065 9e-3 0.099 0.01h17.027c5e-3 -0.542 0.093-15.074-0.099-24.795-0.031-1.587-0.914-3.65-2.109-4.647-15.175-12.659-32.342-15.31-50.271-7.654-27.098 11.572-37.516 43.997-22.554 69.339 8.876 15.034 22.368 23.334 40.1 23.933 12.852 0.434 23.688-4.717 33.501-12.524 0.922-0.734 3.482-3.191 5.55-1.123 1.856 1.856-0.026 3.367-1.437 4.778-17.597 17.597-46.692 19.233-66.715 4.376-18.09-13.423-25.842-31.577-21.814-54.11 3.237-18.104 13.777-30.814 30.001-38.869 11.05-5.485 22.793-6.309 34.715-3.456 8.818 2.11 16.849 5.921 23.571 12.212 1.935 1.812 2.803 3.757 2.807 6.515 8e-3 5.082 8e-3 31.088 8e-3 31.088z" fill="" stroke="" stroke-miterlimit="10" stroke-width="3">

</path>
</g>
</g>
<g transform="translate(113.63 119.92)"><path d="M 0,0 21.167,-13.857 0,-27.713" fill="#3d95c4"></path></g></g></g></svg>
