<?xml version="1.0" encoding="UTF-8" standalone="no"?>
<!-- Created with Inkscape (http://www.inkscape.org/) -->

<svg
   xmlns:dc="http://purl.org/dc/elements/1.1/"
   xmlns:cc="http://creativecommons.org/ns#"
   xmlns:rdf="http://www.w3.org/1999/02/22-rdf-syntax-ns#"
   xmlns:svg="http://www.w3.org/2000/svg"
   xmlns="http://www.w3.org/2000/svg"
   xmlns:sodipodi="http://sodipodi.sourceforge.net/DTD/sodipodi-0.dtd"
   xmlns:inkscape="http://www.inkscape.org/namespaces/inkscape"
   id="svg2"
   version="1.1"
   inkscape:version="0.91 r13725"
   xml:space="preserve"
   width="60"
   height="60"
   viewBox="0 0 60 60"
   sodipodi:docname="globe.svg"><metadata
     id="metadata8"><rdf:RDF><cc:Work
         rdf:about=""><dc:format>image/svg+xml</dc:format><dc:type
           rdf:resource="http://purl.org/dc/dcmitype/StillImage" /><dc:title></dc:title></cc:Work></rdf:RDF></metadata><defs
     id="defs6"><clipPath
       clipPathUnits="userSpaceOnUse"
       id="clipPath16"><path
         d="M 0,48 48,48 48,0 0,0 0,48 Z"
         id="path18"
         inkscape:connector-curvature="0" /></clipPath></defs><sodipodi:namedview
     pagecolor="#ffffff"
     bordercolor="#666666"
     borderopacity="1"
     objecttolerance="10"
     gridtolerance="10"
     guidetolerance="10"
     inkscape:pageopacity="0"
     inkscape:pageshadow="2"
     inkscape:window-width="686"
     inkscape:window-height="480"
     id="namedview4"
     showgrid="false"
     inkscape:zoom="3.9333333"
     inkscape:cx="30"
     inkscape:cy="30"
     inkscape:window-x="0"
     inkscape:window-y="0"
     inkscape:window-maximized="0"
     inkscape:current-layer="g10" /><g
     id="g10"
     inkscape:groupmode="layer"
     inkscape:label="Vector Smart Object2"
     transform="matrix(1.25,0,0,-1.25,0,60)"><g
       id="g12"><g
         id="g14"
         clip-path="url(#clipPath16)"><g
           id="g20"
           transform="translate(47,24)"><path
             d="m 0,0 c 0,-12.703 -10.299,-23 -23,-23 -12.703,0 -23,10.297 -23,23 0,12.702 10.297,23 23,23 C -10.299,23 0,12.702 0,0 Z"
             style="fill:none;stroke:#959d9f;stroke-width:2;stroke-linecap:round;stroke-linejoin:round;stroke-miterlimit:10;stroke-dasharray:none;stroke-opacity:1"
             id="path22"
             inkscape:connector-curvature="0" /></g><g
           id="g24"
           transform="translate(41,39.4902)"><path
             d="m 0,0 c 0,0 -1,-5.49 -5,-7.49 -4,1 -8,-2 -7,-2 1,0 2,-4 2,-4 1,-1 3,0 3,0 2.5,-2.5 -4,-7 -4,-8 0,-1 2.5,-1.5 1,-3 -1.5,-1.5 -3,-2 -3,-2 0,-5 -5,-5 -6,-5 -1,0 -3,4 -3,5 0,1 1,2 1,3 0,1 -2,3 -2,3 0,4 -3,3 -6,3 -3,0 -3,4 -3,4 0,0 0,7 5,8 5,1 5,-1 5,-1 2,-2 6,0 8,0 0,0 1,7 -1,6 -2,-1 -3.793,-0.227 -4,2 -0.291,3.125 8.727,5 8.727,5"
             style="fill:none;stroke:#959d9f;stroke-width:2;stroke-linecap:round;stroke-linejoin:round;stroke-miterlimit:10;stroke-dasharray:none;stroke-opacity:1"
             id="path26"
             inkscape:connector-curvature="0" /></g></g></g></g></svg>