<?xml version="1.0" encoding="UTF-8" standalone="no"?>
<!-- Created with Inkscape (http://www.inkscape.org/) -->

<svg
   xmlns:dc="http://purl.org/dc/elements/1.1/"
   xmlns:cc="http://creativecommons.org/ns#"
   xmlns:rdf="http://www.w3.org/1999/02/22-rdf-syntax-ns#"
   xmlns:svg="http://www.w3.org/2000/svg"
   xmlns="http://www.w3.org/2000/svg"
   xmlns:sodipodi="http://sodipodi.sourceforge.net/DTD/sodipodi-0.dtd"
   xmlns:inkscape="http://www.inkscape.org/namespaces/inkscape"
   id="svg2"
   version="1.1"
   inkscape:version="0.91 r13725"
   xml:space="preserve"
   width="60"
   height="60"
   viewBox="0 0 60 60"
   sodipodi:docname="graph.svg"><metadata
     id="metadata8"><rdf:RDF><cc:Work
         rdf:about=""><dc:format>image/svg+xml</dc:format><dc:type
           rdf:resource="http://purl.org/dc/dcmitype/StillImage" /><dc:title></dc:title></cc:Work></rdf:RDF></metadata><defs
     id="defs6"><clipPath
       clipPathUnits="userSpaceOnUse"
       id="clipPath16"><path
         d="M 0,48 48,48 48,0 0,0 0,48 Z"
         id="path18"
         inkscape:connector-curvature="0" /></clipPath></defs><sodipodi:namedview
     pagecolor="#ffffff"
     bordercolor="#666666"
     borderopacity="1"
     objecttolerance="10"
     gridtolerance="10"
     guidetolerance="10"
     inkscape:pageopacity="0"
     inkscape:pageshadow="2"
     inkscape:window-width="686"
     inkscape:window-height="480"
     id="namedview4"
     showgrid="false"
     inkscape:zoom="3.9333333"
     inkscape:cx="30"
     inkscape:cy="30"
     inkscape:window-x="0"
     inkscape:window-y="0"
     inkscape:window-maximized="0"
     inkscape:current-layer="g10" /><g
     id="g10"
     inkscape:groupmode="layer"
     inkscape:label="Vector Smart Object"
     transform="matrix(1.25,0,0,-1.25,0,60)"><g
       id="g12"><g
         id="g14"
         clip-path="url(#clipPath16)"><g
           id="g20"
           transform="translate(1,1)"><path
             d="M 0,0 46,0"
             style="fill:none;stroke:#959d9f;stroke-width:2;stroke-linecap:round;stroke-linejoin:round;stroke-miterlimit:10;stroke-dasharray:none;stroke-opacity:1"
             id="path22"
             inkscape:connector-curvature="0" /></g><path
           d="M 9,11 3,11 3,1 9,1 9,11 Z"
           style="fill:none;stroke:#959d9f;stroke-width:2;stroke-linecap:round;stroke-linejoin:round;stroke-miterlimit:10;stroke-dasharray:none;stroke-opacity:1"
           id="path24"
           inkscape:connector-curvature="0" /><path
           d="m 21,21 -6,0 0,-20 6,0 0,20 z"
           style="fill:none;stroke:#959d9f;stroke-width:2;stroke-linecap:round;stroke-linejoin:round;stroke-miterlimit:10;stroke-dasharray:none;stroke-opacity:1"
           id="path26"
           inkscape:connector-curvature="0" /><path
           d="m 33,17 -6,0 0,-16 6,0 0,16 z"
           style="fill:none;stroke:#959d9f;stroke-width:2;stroke-linecap:round;stroke-linejoin:round;stroke-miterlimit:10;stroke-dasharray:none;stroke-opacity:1"
           id="path28"
           inkscape:connector-curvature="0" /><path
           d="m 45,31 -6,0 0,-30 6,0 0,30 z"
           style="fill:none;stroke:#959d9f;stroke-width:2;stroke-linecap:round;stroke-linejoin:round;stroke-miterlimit:10;stroke-dasharray:none;stroke-opacity:1"
           id="path30"
           inkscape:connector-curvature="0" /><g
           id="g32"
           transform="translate(8,25)"><path
             d="m 0,0 c 0,-1.104 -0.895,-2 -2,-2 -1.104,0 -2,0.896 -2,2 0,1.104 0.896,2 2,2 1.105,0 2,-0.896 2,-2 z"
             style="fill:none;stroke:#959d9f;stroke-width:2;stroke-linecap:round;stroke-linejoin:round;stroke-miterlimit:10;stroke-dasharray:none;stroke-opacity:1"
             id="path34"
             inkscape:connector-curvature="0" /></g><g
           id="g36"
           transform="translate(20,35)"><path
             d="m 0,0 c 0,-1.104 -0.895,-2 -2,-2 -1.104,0 -2,0.896 -2,2 0,1.104 0.896,2 2,2 1.105,0 2,-0.896 2,-2 z"
             style="fill:none;stroke:#959d9f;stroke-width:2;stroke-linecap:round;stroke-linejoin:round;stroke-miterlimit:10;stroke-dasharray:none;stroke-opacity:1"
             id="path38"
             inkscape:connector-curvature="0" /></g><g
           id="g40"
           transform="translate(32,31)"><path
             d="m 0,0 c 0,-1.104 -0.895,-2 -2,-2 -1.104,0 -2,0.896 -2,2 0,1.104 0.896,2 2,2 1.105,0 2,-0.896 2,-2 z"
             style="fill:none;stroke:#959d9f;stroke-width:2;stroke-linecap:round;stroke-linejoin:round;stroke-miterlimit:10;stroke-dasharray:none;stroke-opacity:1"
             id="path42"
             inkscape:connector-curvature="0" /></g><g
           id="g44"
           transform="translate(44,45)"><path
             d="m 0,0 c 0,-1.104 -0.895,-2 -2,-2 -1.104,0 -2,0.896 -2,2 0,1.104 0.896,2 2,2 1.105,0 2,-0.896 2,-2 z"
             style="fill:none;stroke:#959d9f;stroke-width:2;stroke-linecap:round;stroke-linejoin:round;stroke-miterlimit:10;stroke-dasharray:none;stroke-opacity:1"
             id="path46"
             inkscape:connector-curvature="0" /></g><g
           id="g48"
           transform="translate(7.5371,26.2803)"><path
             d="M 0,0 8.928,7.44"
             style="fill:none;stroke:#959d9f;stroke-width:2;stroke-linecap:round;stroke-linejoin:round;stroke-miterlimit:10;stroke-dasharray:none;stroke-opacity:1"
             id="path50"
             inkscape:connector-curvature="0" /></g><g
           id="g52"
           transform="translate(19.8896,34.3696)"><path
             d="M 0,0 8.271,-2.755"
             style="fill:none;stroke:#959d9f;stroke-width:2;stroke-linecap:round;stroke-linejoin:round;stroke-miterlimit:10;stroke-dasharray:none;stroke-opacity:1"
             id="path54"
             inkscape:connector-curvature="0" /></g><g
           id="g56"
           transform="translate(40.6992,43.4824)"><path
             d="M 0,0 -9.398,-10.964"
             style="fill:none;stroke:#959d9f;stroke-width:2;stroke-linecap:round;stroke-linejoin:round;stroke-miterlimit:10;stroke-dasharray:none;stroke-opacity:1"
             id="path58"
             inkscape:connector-curvature="0" /></g></g></g></g></svg>