<?xml version="1.0" encoding="UTF-8" standalone="no"?>
<svg width="32px" height="32px" viewBox="0 0 32 32" version="1.1" xmlns="http://www.w3.org/2000/svg" xmlns:xlink="http://www.w3.org/1999/xlink">
    <!-- Generator: Sketch 43.2 (39069) - http://www.bohemiancoding.com/sketch -->
    <title>googleplus</title>
    <desc>Created with Sketch.</desc>
    <defs></defs>
    <g id="Page-1" stroke="none" stroke-width="1" fill="none" fill-rule="evenodd">
        <g id="Landing-B" transform="translate(-1194.000000, -4084.000000)">
            <g id="footer" transform="translate(0.000000, 4050.000000)">
                <g id="googleplus" transform="translate(1194.000000, 34.000000)">
                    <g>
                        <circle id="Oval" stroke-opacity="0.5" stroke="#FFFFFF" stroke-width="2" cx="16" cy="16" r="15"></circle>
                        <path d="M13.4437124,14.7758657 L19.3701114,14.7758657 C19.7827301,17.738343 18.5376519,22.1818182 13.4437124,22.1818182 C10.0358765,22.1818182 7.27272727,19.4138543 7.27272727,15.9997593 C7.27272727,12.5856643 10.0358765,9.81818182 13.4437124,9.81818182 C15.0426702,9.81818182 16.4995946,10.4272398 17.595899,11.426769 C16.3045998,12.6487367 16.346969,12.7214385 15.839501,13.2298695 C15.2054066,12.7045871 14.5140175,12.327597 13.4437124,12.327597 C11.4191363,12.327597 9.83895578,13.9718128 9.83895578,15.9997593 C9.83895578,18.0281872 11.4191363,19.672403 13.4437124,19.672403 C15.4442151,19.672403 16.2569344,18.8081666 16.7798095,17.220764 C15.8144646,17.220764 13.4437124,17.2241343 13.4437124,17.2241343 L13.4437124,14.7758657 Z M24.5632335,14.8981587 L26.7014363,14.8981587 L26.7014363,16.4282665 L24.5632335,16.4282665 L24.5632335,18.631949 L23.0360146,18.631949 L23.0360146,16.4282665 L20.8361838,16.4282665 L20.8361838,14.8981587 L23.0360146,14.8981587 L23.0360146,12.7561042 L24.5632335,12.7561042 L24.5632335,14.8981587 Z" id="Shape" fill="#FFFFFF"></path>
                    </g>
                </g>
            </g>
        </g>
    </g>
</svg>