<svg id="Layer_1" data-name="Layer 1" xmlns="http://www.w3.org/2000/svg" xmlns:xlink="http://www.w3.org/1999/xlink" viewBox="0 0 200 200"><defs><style>.cls-1{filter:url(#filter-2);}.cls-2{fill:#fff;}</style><filter id="filter-2" x="-19.3" y="-25.2" width="138.6" height="150.3" name="filter-2"><feOffset result="shadowOffsetOuter1" in="SourceAlpha"/><feGaussianBlur result="shadowBlurOuter1" stdDeviation="10" in="shadowOffsetOuter1"/><feColorMatrix values="0 0 0 0 0 0 0 0 0 1 0 0 0 0 0.96 0 0 0 0.4 0" in="shadowBlurOuter1"/></filter></defs><title>hand</title><g id="Page-1"><g id="Landing-B"><g id="hand"><g id="Shape"><g class="cls-1"><path id="path-1" d="M99.75,85.39a14.72,14.72,0,0,0-12.13,6.4,15.32,15.32,0,0,0-1.82,13.8L45.43,138.32a7.19,7.19,0,0,0-9.32,1.19,7.53,7.53,0,0,0-.42,9.56,7.2,7.2,0,0,0,9.18,2,7.48,7.48,0,0,0,3.51-8.88l42.55-29.77a14.54,14.54,0,0,0,17.78.37,15.2,15.2,0,0,0,5.22-17.32l75.79-62.77L108.33,88.32a14.69,14.69,0,0,0-8.59-2.93ZM104,106.45A7.27,7.27,0,0,1,94,104.88a7.46,7.46,0,0,1-.65-7.68,7.19,7.19,0,0,1,6.44-4,7.09,7.09,0,0,1,5.79,3,7.45,7.45,0,0,1,1.36,5.47A7.37,7.37,0,0,1,104,106.45Z"/></g><path id="path-1-2" data-name="path-1" class="cls-2" d="M99.75,85.39a14.72,14.72,0,0,0-12.13,6.4,15.32,15.32,0,0,0-1.82,13.8L45.43,138.32a7.19,7.19,0,0,0-9.32,1.19,7.53,7.53,0,0,0-.42,9.56,7.2,7.2,0,0,0,9.18,2,7.48,7.48,0,0,0,3.51-8.88l42.55-29.77a14.54,14.54,0,0,0,17.78.37,15.2,15.2,0,0,0,5.22-17.32l75.79-62.77L108.33,88.32a14.69,14.69,0,0,0-8.59-2.93ZM104,106.45A7.27,7.27,0,0,1,94,104.88a7.46,7.46,0,0,1-.65-7.68,7.19,7.19,0,0,1,6.44-4,7.09,7.09,0,0,1,5.79,3,7.45,7.45,0,0,1,1.36,5.47A7.37,7.37,0,0,1,104,106.45Z"/></g></g></g></g></svg>