<?xml version="1.0" encoding="UTF-8" standalone="no"?>
<svg width="18px" height="20px" viewBox="0 0 18 20" version="1.1" xmlns="http://www.w3.org/2000/svg" xmlns:xlink="http://www.w3.org/1999/xlink">
    <!-- Generator: Sketch 43.2 (39069) - http://www.bohemiancoding.com/sketch -->
    <title>Shape-ic</title>
    <desc>Created with Sketch.</desc>
    <defs></defs>
    <g id="Page-1" stroke="none" stroke-width="1" fill="none" fill-rule="evenodd">
        <g id="Landing-B" transform="translate(-1226.000000, -38.000000)" fill="#FFFFFF">
            <g id="Share" transform="translate(1176.000000, 38.000000)">
                <g id="share">
                    <path d="M65,14.08 C64.24,14.08 63.56,14.38 63.04,14.85 L55.91,10.7 C55.96,10.47 56,10.24 56,10 C56,9.76 55.96,9.53 55.91,9.3 L62.96,5.19 C63.5,5.69 64.21,6 65,6 C66.66,6 68,4.66 68,3 C68,1.34 66.66,0 65,0 C63.34,0 62,1.34 62,3 C62,3.24 62.04,3.47 62.09,3.7 L55.04,7.81 C54.5,7.31 53.79,7 53,7 C51.34,7 50,8.34 50,10 C50,11.66 51.34,13 53,13 C53.79,13 54.5,12.69 55.04,12.19 L62.16,16.35 C62.11,16.56 62.08,16.78 62.08,17 C62.08,18.61 63.39,19.92 65,19.92 C66.61,19.92 67.92,18.61 67.92,17 C67.92,15.39 66.61,14.08 65,14.08 Z" id="Shape-ic"></path>
                </g>
            </g>
        </g>
    </g>
</svg>