<?xml version="1.0" encoding="UTF-8" standalone="no"?>
<svg width="296px" height="374px" viewBox="0 0 296 374" version="1.1" xmlns="http://www.w3.org/2000/svg" xmlns:xlink="http://www.w3.org/1999/xlink">
    <!-- Generator: Sketch 43.2 (39069) - http://www.bohemiancoding.com/sketch -->
    <title>stopwatch</title>
    <desc>Created with Sketch.</desc>
    <defs></defs>
    <g id="Page-1" stroke="none" stroke-width="1" fill="none" fill-rule="evenodd">
        <g id="Landing-B" transform="translate(-127.000000, -2163.000000)" fill-rule="nonzero" fill="#00FFF5">
            <g id="stopwatch" transform="translate(127.000000, 2163.000000)">
                <path d="M148.04,72.7508333 C88.5271924,72.7349921 34.8664983,109.353883 12.0847702,165.528794 C-10.6969579,221.703704 1.88785374,286.369229 43.969765,329.365965 C86.0516762,372.3627 149.341339,385.221095 204.321039,361.944112 C259.300738,338.667129 295.140504,283.839898 295.125,223.033333 C295.019409,140.07933 229.229025,72.8587201 148.04,72.7508333 L148.04,72.7508333 Z M148.04,361.605 C93.1819964,361.620842 43.7170441,327.868986 22.7130504,276.089559 C1.70905656,224.310132 13.3029494,164.701565 52.0879341,125.062224 C90.8729189,85.4228837 149.209939,73.5600997 199.893612,95.0060639 C250.577284,116.452028 283.624998,166.982762 283.625,223.033333 C283.540543,299.513292 222.892699,361.497087 148.04,361.605 Z" id="Shape"></path>
                <path d="M148.04,89.0833333 C95.05461,89.0041367 47.2412413,121.548402 26.9001401,171.537423 C6.55903887,221.526444 17.6971397,279.113027 55.119611,317.438681 C92.5420823,355.764335 148.87718,367.2794 197.850108,346.613228 C246.823035,325.947056 278.786757,277.170617 278.833333,223.033333 C278.812456,149.185889 220.315975,89.2776088 148.04,89.0833333 L148.04,89.0833333 Z M148.04,352.7925 C96.5806342,352.871717 50.1480376,321.252057 30.4159721,272.692912 C10.6839067,224.133768 21.5432347,168.210262 57.9250496,131.026315 C94.3068646,93.8423671 149.037228,82.7300847 196.569153,102.876448 C244.101079,123.022811 275.061997,170.455264 275,223.033333 C274.915808,294.671801 218.154038,352.755076 148.04,352.949167 L148.04,352.7925 Z" id="Shape"></path>
                <path d="M148.04,178.461667 C166.374013,178.461667 181.236667,163.275912 181.236667,144.543333 C181.236667,125.810755 166.374013,110.625 148.04,110.625 C129.705987,110.625 114.843333,125.810755 114.843333,144.543333 C114.864458,163.266964 129.714744,178.440083 148.04,178.461667 L148.04,178.461667 Z M148.04,114.5025 C164.256921,114.5025 177.403333,127.934704 177.403333,144.504167 C177.403333,161.07363 164.256921,174.505833 148.04,174.505833 C131.823079,174.505833 118.676667,161.07363 118.676667,144.504167 C118.718878,127.958947 131.846765,114.563182 148.04,114.541667 L148.04,114.5025 Z" id="Shape"></path>
                <ellipse id="Oval" cx="148.845" cy="100.8725" rx="5.59666667" ry="5.71833333"></ellipse>
                <path d="M148.193333,149.791667 L148.193333,158.290833 C147.505725,158.564096 147.106074,159.298955 147.242132,160.039855 C147.37819,160.780755 148.011377,161.317608 148.749167,161.317608 C149.486957,161.317608 150.120144,160.780755 150.256202,160.039855 C150.39226,159.298955 149.992608,158.564096 149.305,158.290833 L149.726667,149.830833 C152.880375,149.536889 155.31244,146.865365 155.371438,143.630279 C155.430437,140.395194 153.097469,137.632949 149.956667,137.219167 L149.42,118.340833 L148.5,137.18 C145.45437,137.620182 143.175317,140.259678 143.12756,143.402117 C143.079802,146.544556 145.277548,149.255079 148.308333,149.791667 L148.193333,149.791667 Z" id="Shape"></path>
                <ellipse id="Oval" cx="148.845" cy="344.058333" rx="5.59666667" ry="5.71833333"></ellipse>
                <path d="M267.87,216.766667 C265.602883,216.766721 263.559752,218.164224 262.695788,220.305831 C261.831825,222.447438 262.31772,224.910038 263.926313,226.542343 C265.534906,228.174649 267.948393,228.65417 270.038447,227.756727 C272.1285,226.859284 273.482195,224.762181 273.466667,222.445833 C273.445598,219.302991 270.946045,216.766593 267.87,216.766667 L267.87,216.766667 Z" id="Shape"></path>
                <path d="M29.6666667,216.766667 C27.3995494,216.766721 25.3564183,218.164224 24.4924548,220.305831 C23.6284913,222.447438 24.1143863,224.910038 25.7229797,226.542343 C27.3315732,228.174649 29.7450595,228.65417 31.8351132,227.756727 C33.9251669,226.859284 35.2788615,224.762181 35.2633333,222.445833 C35.2422645,219.302991 32.7427119,216.766593 29.6666667,216.766667 L29.6666667,216.766667 Z" id="Shape"></path>
                <ellipse id="Oval" cx="233.025" cy="308.455833" rx="5.59666667" ry="5.71833333"></ellipse>
                <ellipse id="Oval" cx="64.7033333" cy="136.475" rx="5.59666667" ry="5.71833333"></ellipse>
                <ellipse id="Oval" cx="64.7033333" cy="308.455833" rx="5.59666667" ry="5.71833333"></ellipse>
                <ellipse id="Oval" cx="233.025" cy="136.514167" rx="5.59666667" ry="5.71833333"></ellipse>
                <rect id="Rectangle-path" x="133.895" y="29.8241667" width="32.5833333" height="20.9541667"></rect>
                <path d="M137.306667,66.0533333 L137.306667,69.97 L163.028333,69.97 L163.028333,66.0533333 C177.599333,59.7970368 185.832773,43.9119189 182.709599,28.0814502 C179.586425,12.2509814 165.972797,0.865481521 150.1675,0.865481521 C134.362203,0.865481521 120.748575,12.2509814 117.625401,28.0814502 C114.502227,43.9119189 122.735667,59.7970368 137.306667,66.0533333 L137.306667,66.0533333 Z M150.416667,4.875 C164.126382,4.88537332 176.004446,14.5876355 179.032892,28.2493582 C182.061338,41.9110809 175.434054,55.8957868 163.066667,61.9408333 L163.066667,53.4808333 L137.306667,53.4808333 L137.306667,61.6666667 C125.18033,55.420863 118.827718,41.4938289 121.945179,27.9891898 C125.06264,14.4845508 136.836782,4.92587412 150.416667,4.875 L150.416667,4.875 Z" id="Shape"></path>
                <rect id="Rectangle-path" transform="translate(261.012940, 110.503636) rotate(-45.010000) translate(-261.012940, -110.503636) " x="252.90544" y="97.3632191" width="16.215" height="26.2808333"></rect>
                <rect id="Rectangle-path" transform="translate(275.857994, 95.294778) rotate(-45.000000) translate(-275.857994, -95.294778) " x="265.603827" y="78.6489443" width="20.5083333" height="33.2916667"></rect>
            </g>
        </g>
    </g>
</svg>