<svg id="Layer_1" data-name="Layer 1" xmlns="http://www.w3.org/2000/svg" viewBox="0 0 100 125"><defs><style>.cls-1{fill:#00fff5;}</style></defs><title>Artboard 1</title><path class="cls-1" d="M49.88,19.83A38.38,38.38,0,1,0,88.25,58.2,38.42,38.42,0,0,0,49.88,19.83Zm0,73.75A35.38,35.38,0,1,1,85.25,58.2,35.42,35.42,0,0,1,49.88,93.58Z"/><path class="cls-1" d="M49.88,24A34.17,34.17,0,1,0,84,58.2,34.21,34.21,0,0,0,49.88,24Zm0,67.33A33.17,33.17,0,1,1,83,58.2,33.21,33.21,0,0,1,49.88,91.37Z"/><path class="cls-1" d="M49.88,46.82a8.66,8.66,0,1,0-8.66-8.66A8.67,8.67,0,0,0,49.88,46.82Zm0-16.33a7.66,7.66,0,1,1-7.66,7.66A7.67,7.67,0,0,1,49.88,30.5Z"/><circle class="cls-1" cx="50.09" cy="27.01" r="1.46"/><path class="cls-1" d="M49.92,39.5l0,2.17a.4.4,0,1,0,.29,0l.11-2.16a1.62,1.62,0,0,0,.06-3.22l-.14-4.82L50,36.28a1.63,1.63,0,0,0-.05,3.22Z"/><circle class="cls-1" cx="50.09" cy="89.1" r="1.46"/><path class="cls-1" d="M81.14,56.6a1.46,1.46,0,1,0,1.46,1.45A1.46,1.46,0,0,0,81.14,56.6Z"/><path class="cls-1" d="M19,56.6a1.46,1.46,0,1,0,1.46,1.45A1.46,1.46,0,0,0,19,56.6Z"/><circle class="cls-1" cx="72.05" cy="80.01" r="1.46"/><circle class="cls-1" cx="28.14" cy="36.1" r="1.46"/><circle class="cls-1" cx="28.14" cy="80.01" r="1.46"/><circle class="cls-1" cx="72.05" cy="36.11" r="1.46"/><rect class="cls-1" x="46.19" y="8.87" width="8.5" height="5.35"/><path class="cls-1" d="M47.08,18.12v1h6.71v-1a8.66,8.66,0,1,0-6.71,0ZM50.5,2.5a7.66,7.66,0,0,1,3.3,14.57V14.91H47.08V17A7.66,7.66,0,0,1,50.5,2.5Z"/><rect class="cls-1" x="77.24" y="26.11" width="4.23" height="6.71" transform="translate(2.41 64.76) rotate(-45.01)"/><rect class="cls-1" x="80.55" y="21.34" width="5.35" height="8.5" transform="translate(6.28 66.34) rotate(-45)"/></svg>