<?xml version="1.0" encoding="UTF-8" standalone="no"?>
<svg width="32px" height="32px" viewBox="0 0 32 32" version="1.1" xmlns="http://www.w3.org/2000/svg" xmlns:xlink="http://www.w3.org/1999/xlink">
    <!-- Generator: Sketch 43.2 (39069) - http://www.bohemiancoding.com/sketch -->
    <title>twitter</title>
    <desc>Created with Sketch.</desc>
    <defs></defs>
    <g id="Page-1" stroke="none" stroke-width="1" fill="none" fill-rule="evenodd">
        <g id="Landing-B" transform="translate(-1145.000000, -4084.000000)">
            <g id="footer" transform="translate(0.000000, 4050.000000)">
                <g id="twitter" transform="translate(1145.000000, 34.000000)">
                    <g>
                        <g>
                            <circle id="Oval" stroke="#FFFFFF" stroke-width="2" opacity="0.5" cx="16" cy="16" r="15"></circle>
                            <path d="M22.2329635,12.0552506 C22.8686388,11.6496461 23.3564008,11.0065001 23.5853143,10.2403582 C22.9901391,10.6168569 22.3324529,10.8891377 21.6307448,11.0365449 C21.0707871,10.3980933 20.2704702,10 19.3847508,10 C17.685508,10 16.308505,11.4693774 16.308505,13.2814531 C16.308505,13.5387115 16.3340377,13.7893977 16.3868639,14.028817 C13.8300757,13.8917377 11.5629512,12.5866676 10.0441979,10.5999567 C9.77918648,11.0863065 9.62775136,11.6496461 9.62775136,12.2505417 C9.62775136,13.3884876 10.1709808,14.3931099 10.9968304,14.9827387 C10.4923402,14.9658385 10.0177848,14.8165535 9.6022187,14.5724397 L9.6022187,14.6128124 C9.6022187,16.2033078 10.6622645,17.5299726 12.0718436,17.8304203 C11.8129952,17.9074101 11.5418207,17.945905 11.260081,17.945905 C11.0619827,17.945905 10.8682867,17.9261881 10.6816341,17.8876932 C11.072548,19.1908855 12.2091918,20.1410516 13.5562599,20.1664018 C12.5023772,21.0470894 11.1755591,21.5709952 9.7342842,21.5709952 C9.48600106,21.5709952 9.24035922,21.5569117 9,21.5259281 C10.3620356,22.4563773 11.9793978,23 13.7173798,23 C19.3785878,23 22.4724423,17.9994222 22.4724423,13.6626463 C22.4724423,13.5199336 22.4706815,13.3781598 22.4645184,13.2382638 C23.0658567,12.7753864 23.5888361,12.1970244 24,11.538856 C23.4479662,11.79987 22.8545519,11.9763831 22.2329635,12.0552506 Z" id="Shape" fill="#FFFFFF"></path>
                        </g>
                    </g>
                </g>
            </g>
        </g>
    </g>
</svg>