<?xml version="1.0" encoding="utf-8"?>
<!-- Generator: Adobe Illustrator 16.0.3, SVG Export Plug-In . SVG Version: 6.00 Build 0)  -->
<!DOCTYPE svg PUBLIC "-//W3C//DTD SVG 1.1//EN" "http://www.w3.org/Graphics/SVG/1.1/DTD/svg11.dtd">
<svg version="1.1" xmlns="http://www.w3.org/2000/svg" xmlns:xlink="http://www.w3.org/1999/xlink" x="0px" y="0px" width="24px"
	 height="24px" viewBox="0 0 24 24" enable-background="new 0 0 24 24" xml:space="preserve">
<g id="Outline_Icons_1_">
	<g id="Outline_Icons">
		<path fill="#FFFFFF" d="M12,0C5.383,0,0,5.383,0,12c0,6.617,5.383,12,12,12c2.448,0,4.793-0.723,6.783-2.088c0.228-0.156,0.286-0.467,0.129-0.695
			c-0.156-0.228-0.467-0.286-0.695-0.129C16.395,22.339,14.245,23,12,23C5.935,23,1,18.065,1,12S5.935,1,12,1s11,4.935,11,11v1
			c0,1.654-1.346,3-3,3s-3-1.346-3-3v-1c0-2.757-2.243-5-5-5s-5,2.243-5,5s2.243,5,5,5c1.839,0,3.432-1.009,4.3-2.492
			C16.897,15.967,18.328,17,20,17c2.206,0,4-1.794,4-4v-1C24,5.383,18.617,0,12,0z M12,16c-2.206,0-4-1.794-4-4c0-2.206,1.794-4,4-4
			s4,1.794,4,4C16,14.206,14.206,16,12,16z"/>
	</g>
	<g id="New_icons_1_">
	</g>
</g>
<g id="Invisible_Shape">
	<rect fill="none" width="24" height="24"/>
</g>
</svg>
