<?xml version="1.0" encoding="UTF-8" standalone="no"?>
<!-- Created with Inkscape (http://www.inkscape.org/) -->

<svg
   xmlns:dc="http://purl.org/dc/elements/1.1/"
   xmlns:cc="http://creativecommons.org/ns#"
   xmlns:rdf="http://www.w3.org/1999/02/22-rdf-syntax-ns#"
   xmlns:svg="http://www.w3.org/2000/svg"
   xmlns="http://www.w3.org/2000/svg"
   xmlns:sodipodi="http://sodipodi.sourceforge.net/DTD/sodipodi-0.dtd"
   xmlns:inkscape="http://www.inkscape.org/namespaces/inkscape"
   id="svg2"
   version="1.1"
   inkscape:version="0.91 r13725"
   xml:space="preserve"
   width="303.73001"
   height="303.73251"
   viewBox="0 0 303.73001 303.73251"
   sodipodi:docname="logo_white.svg"><metadata
     id="metadata8"><rdf:RDF><cc:Work
         rdf:about=""><dc:format>image/svg+xml</dc:format><dc:type
           rdf:resource="http://purl.org/dc/dcmitype/StillImage" /><dc:title></dc:title></cc:Work></rdf:RDF></metadata><defs
     id="defs6"><clipPath
       clipPathUnits="userSpaceOnUse"
       id="clipPath16"><path
         d="m 0,242.986 242.984,0 L 242.984,0 0,0 0,242.986 Z"
         id="path18"
         inkscape:connector-curvature="0" /></clipPath></defs><sodipodi:namedview
     pagecolor="#ffffff"
     bordercolor="#666666"
     borderopacity="1"
     objecttolerance="10"
     gridtolerance="10"
     guidetolerance="10"
     inkscape:pageopacity="0"
     inkscape:pageshadow="2"
     inkscape:window-width="686"
     inkscape:window-height="480"
     id="namedview4"
     showgrid="false"
     inkscape:zoom="0.77699946"
     inkscape:cx="151.86501"
     inkscape:cy="151.86626"
     inkscape:window-x="0"
     inkscape:window-y="0"
     inkscape:window-maximized="0"
     inkscape:current-layer="g10" /><g
     id="g10"
     inkscape:groupmode="layer"
     inkscape:label="Vector Smart Object"
     transform="matrix(1.25,0,0,-1.25,0,303.7325)"><g
       id="g12"><g
         id="g14"
         clip-path="url(#clipPath16)"><g
           id="g20"
           transform="translate(230.4791,121.3728)"><path
             d="m 0,0 c 0.004,59.699 -48.813,109.078 -107.867,109.108 -60.662,0.03 -110.076,-48.378 -110.106,-107.866 -0.031,-60.853 48.422,-110.083 108.368,-110.107 C -49.013,-108.889 -0.004,-60.212 0,0 M -108.42,121.611 C -41.281,121.25 12.785,66.734 12.504,-0.319 c -0.283,-67.318 -55.134,-121.605 -122.31,-121.05 -67.19,0.556 -121.121,55.163 -120.67,122.183 0.451,67.16 55.012,121.158 122.056,120.797"
             style="fill:#ffffff;fill-opacity:1;fill-rule:nonzero;stroke:none"
             id="path22"
             inkscape:connector-curvature="0" /></g><g
           id="g24"
           transform="translate(65.0439,186.6099)"><path
             d="m 0,0 c 7.842,-6.183 15.115,-11.91 22.38,-17.647 9.931,-7.842 19.934,-15.597 29.732,-23.602 2.567,-2.097 4.22,-2.022 6.805,-0.037 16.508,12.672 33.153,25.167 49.756,37.715 1.545,1.169 3.114,2.307 5.274,3.904 l 0,-122.157 -11.473,0 0,98.626 c -12.82,-9.866 -24.772,-19.064 -36.996,-28.472 2.83,-2.985 5.696,-5.708 8.214,-8.721 7.936,-9.495 12.195,-20.457 10.259,-32.803 -2.299,-14.666 -11.392,-23.89 -25.847,-26.985 -7.521,-1.61 -15.351,-1.777 -23.398,-2.633 l 0,64.508 c 3.79,-2.497 7.265,-4.433 10.257,-6.943 1.087,-0.913 1.41,-3.192 1.426,-4.854 0.113,-12.326 0.061,-24.653 0.061,-36.979 l 0,-4.907 c 20.668,0.407 31.919,18.963 22.531,36.83 -2.2,4.187 -5.255,8.293 -8.859,11.31 C 44.44,-50.72 28.41,-38.009 11.68,-24.478 l 0,-99.306 -11.68,0 L 0,0 Z"
             style="fill:#ffffff;fill-opacity:1;fill-rule:nonzero;stroke:none"
             id="path26"
             inkscape:connector-curvature="0" /></g></g></g></g></svg>