<?xml version="1.0" encoding="UTF-8" standalone="no"?>
<!-- Created with Inkscape (http://www.inkscape.org/) -->

<svg
   xmlns:dc="http://purl.org/dc/elements/1.1/"
   xmlns:cc="http://creativecommons.org/ns#"
   xmlns:rdf="http://www.w3.org/1999/02/22-rdf-syntax-ns#"
   xmlns:svg="http://www.w3.org/2000/svg"
   xmlns="http://www.w3.org/2000/svg"
   xmlns:sodipodi="http://sodipodi.sourceforge.net/DTD/sodipodi-0.dtd"
   xmlns:inkscape="http://www.inkscape.org/namespaces/inkscape"
   id="svg2"
   version="1.1"
   inkscape:version="0.91 r13725"
   xml:space="preserve"
   width="59.375"
   height="56.875"
   viewBox="0 0 59.375 56.875"
   sodipodi:docname="icon_tv.svg"><metadata
     id="metadata8"><rdf:RDF><cc:Work
         rdf:about=""><dc:format>image/svg+xml</dc:format><dc:type
           rdf:resource="http://purl.org/dc/dcmitype/StillImage" /><dc:title></dc:title></cc:Work></rdf:RDF></metadata><defs
     id="defs6"><clipPath
       clipPathUnits="userSpaceOnUse"
       id="clipPath16"><path
         d="m 0,45.5 47.5,0 L 47.5,0 0,0 0,45.5 Z"
         id="path18"
         inkscape:connector-curvature="0" /></clipPath></defs><sodipodi:namedview
     pagecolor="#ffffff"
     bordercolor="#666666"
     borderopacity="1"
     objecttolerance="10"
     gridtolerance="10"
     guidetolerance="10"
     inkscape:pageopacity="0"
     inkscape:pageshadow="2"
     inkscape:window-width="686"
     inkscape:window-height="480"
     id="namedview4"
     showgrid="false"
     inkscape:zoom="4.1494505"
     inkscape:cx="29.6875"
     inkscape:cy="28.4375"
     inkscape:window-x="0"
     inkscape:window-y="0"
     inkscape:window-maximized="0"
     inkscape:current-layer="g10" /><g
     id="g10"
     inkscape:groupmode="layer"
     inkscape:label="Vector Smart Object1"
     transform="matrix(1.25,0,0,-1.25,0,56.875)"><g
       id="g12"><g
         id="g14"
         clip-path="url(#clipPath16)"><g
           id="g20"
           transform="translate(16.75,12.75)"><path
             d="m 0,0 -13,0 c -1.65,0 -3,1.35 -3,3 l 0,26 c 0,1.65 1.35,3 3,3 l 40,0 c 1.65,0 3,-1.35 3,-3 L 30,3 C 30,1.35 28.65,0 27,0 l -3,0"
             style="fill:none;stroke:#ffffff;stroke-width:1.5;stroke-linecap:round;stroke-linejoin:miter;stroke-miterlimit:10;stroke-dasharray:none;stroke-opacity:1"
             id="path22"
             inkscape:connector-curvature="0" /></g><g
           id="g24"
           transform="translate(16.75,16.75)"><path
             d="m 0,0 -12,0 0,24 38,0 0,-24 -2,0"
             style="fill:none;stroke:#ffffff;stroke-width:1.5;stroke-linecap:round;stroke-linejoin:miter;stroke-miterlimit:10;stroke-dasharray:none;stroke-opacity:1"
             id="path26"
             inkscape:connector-curvature="0" /></g><path
           d="m 34.75,0.75 -12,0 0,20 12,0 0,-20 z"
           style="fill:none;stroke:#ffffff;stroke-width:1.5;stroke-linecap:butt;stroke-linejoin:miter;stroke-miterlimit:10;stroke-dasharray:none;stroke-opacity:1"
           id="path28"
           inkscape:connector-curvature="0" /><g
           id="g30"
           transform="translate(26.75,16.75)"><path
             d="m 0,0 c -0.553,0 -1,-0.448 -1,-1 0,-0.551 0.447,-1 1,-1 0.553,0 1,0.449 1,1 0,0.552 -0.447,1 -1,1"
             style="fill:#ffffff;fill-opacity:1;fill-rule:nonzero;stroke:none"
             id="path32"
             inkscape:connector-curvature="0" /></g><g
           id="g34"
           transform="translate(30.75,16.75)"><path
             d="m 0,0 c -0.553,0 -1,-0.448 -1,-1 0,-0.551 0.447,-1 1,-1 0.553,0 1,0.449 1,1 0,0.552 -0.447,1 -1,1"
             style="fill:#ffffff;fill-opacity:1;fill-rule:nonzero;stroke:none"
             id="path36"
             inkscape:connector-curvature="0" /></g><g
           id="g38"
           transform="translate(26.75,12.75)"><path
             d="m 0,0 c -0.553,0 -1,-0.448 -1,-1 0,-0.551 0.447,-1 1,-1 0.553,0 1,0.449 1,1 0,0.552 -0.447,1 -1,1"
             style="fill:#ffffff;fill-opacity:1;fill-rule:nonzero;stroke:none"
             id="path40"
             inkscape:connector-curvature="0" /></g><g
           id="g42"
           transform="translate(30.75,12.75)"><path
             d="m 0,0 c -0.553,0 -1,-0.448 -1,-1 0,-0.551 0.447,-1 1,-1 0.553,0 1,0.449 1,1 0,0.552 -0.447,1 -1,1"
             style="fill:#ffffff;fill-opacity:1;fill-rule:nonzero;stroke:none"
             id="path44"
             inkscape:connector-curvature="0" /></g><g
           id="g46"
           transform="translate(26.75,8.75)"><path
             d="m 0,0 c -0.553,0 -1,-0.448 -1,-1 0,-0.551 0.447,-1 1,-1 0.553,0 1,0.449 1,1 0,0.552 -0.447,1 -1,1"
             style="fill:#ffffff;fill-opacity:1;fill-rule:nonzero;stroke:none"
             id="path48"
             inkscape:connector-curvature="0" /></g><g
           id="g50"
           transform="translate(30.75,8.75)"><path
             d="m 0,0 c -0.553,0 -1,-0.448 -1,-1 0,-0.551 0.447,-1 1,-1 0.553,0 1,0.449 1,1 0,0.552 -0.447,1 -1,1"
             style="fill:#ffffff;fill-opacity:1;fill-rule:nonzero;stroke:none"
             id="path52"
             inkscape:connector-curvature="0" /></g><g
           id="g54"
           transform="translate(35.5352,31.8247)"><path
             d="M 0,0 C -3.994,2.453 -9.02,2.549 -13.096,0.282"
             style="fill:none;stroke:#ffffff;stroke-width:1.5;stroke-linecap:round;stroke-linejoin:round;stroke-miterlimit:10;stroke-dasharray:none;stroke-opacity:1"
             id="path56"
             inkscape:connector-curvature="0" /></g><g
           id="g58"
           transform="translate(33.4492,28.4175)"><path
             d="M 0,0 C -2.768,1.697 -6.246,1.764 -9.068,0.195"
             style="fill:none;stroke:#ffffff;stroke-width:1.5;stroke-linecap:round;stroke-linejoin:round;stroke-miterlimit:10;stroke-dasharray:none;stroke-opacity:1"
             id="path60"
             inkscape:connector-curvature="0" /></g><g
           id="g62"
           transform="translate(31.3555,25.002)"><path
             d="M 0,0 C -1.537,0.942 -3.457,0.969 -5.023,0.1"
             style="fill:none;stroke:#ffffff;stroke-width:1.5;stroke-linecap:round;stroke-linejoin:round;stroke-miterlimit:10;stroke-dasharray:none;stroke-opacity:1"
             id="path64"
             inkscape:connector-curvature="0" /></g></g></g></g></svg>