<svg id="Layer_1" data-name="Layer 1" xmlns="http://www.w3.org/2000/svg" viewBox="0 0 252.67 252"><title>Artboard 1 copy 2</title><path d="M42.68,191.58l9.75,10.86L37.77,215.6l-9.62-10.71,2.6-2.33,7.12,7.92L41,207.67l-6.07-6.76,2.6-2.33,6.07,6.76L47.33,202l-7.25-8.07Z"/><path d="M27.82,164.58l2.6,6.82-18.42,7-2.6-6.82c-1.95-5.12.37-9.65,6-11.82S25.9,159.53,27.82,164.58Zm-15.16,5.77,1.26,3.32,11.89-4.53-1.26-3.32c-1.59-4.17-5.57-3.38-7.8-2.53C14.05,164.32,11.16,166.39,12.67,170.35Z"/><path d="M13.07,117.81c5,.06,8.12,2.74,8.07,7.71s-3.21,7.55-8.24,7.49L1,132.87l0-3.75,12,.14c2.93,0,4.42-1.23,4.45-3.78s-1.43-3.85-4.36-3.89l-12-.14,0-3.78Z"/><path d="M29.28,86.14c-2,5-7.82,7.1-13.15,4.9s-7.92-7.78-5.87-12.75a8.94,8.94,0,0,1,9.49-5.8L18.2,76.25a5.42,5.42,0,0,0-4.76,3.35c-1.24,3,.68,6.55,4.12,8s7.33.26,8.57-2.74a5.51,5.51,0,0,0-1.07-5.76l1.54-3.73A9.06,9.06,0,0,1,29.28,86.14Z"/><path d="M44.83,53.41l1.91,3.7L44,60l-9.4-18.64,3.29-3.41,19,8.75-2.76,2.86L50.3,47.75ZM39.22,42.54l3.91,7.61,3.83-4Z"/><path d="M73.7,16.83l7.24,14.52L77.58,33,70.34,18.5l-4.73,2.36-1.56-3.13,12.81-6.39,1.56,3.13Z"/><path d="M122.53,20.81,108,22.43,105.84,2.83l14.31-1.6.39,3.47L109.95,5.89l.47,4.18,9-1,.39,3.47-9,1,.56,5,10.79-1.2Z"/><path d="M153.13,24.45l-7.05-1.87,5.06-19,7.05,1.87c5.3,1.41,7.62,5.93,6.06,11.8S158.34,25.83,153.13,24.45Zm4.16-15.67-3.43-.91-3.27,12.29,3.43.91c4.31,1.14,6-2.55,6.61-4.85C161.37,13.42,161.38,9.87,157.29,8.78Z"/><path d="M232,120l-.81-9.57,19.65-1.67.77,9.06c.33,3.94-1.54,6.09-4.82,6.37a4.6,4.6,0,0,1-4-1.6,5,5,0,0,1-4.47,3.09C234.76,126,232.3,123.82,232,120Zm8.44-1.31-.45-5.24-5.07.43.45,5.32c.12,1.44.81,2.81,2.73,2.65C239.73,121.73,240.58,120.61,240.42,118.71Zm7.31-5.9-4.33.37.45,5.32a2.18,2.18,0,0,0,2.37,2.11,2.09,2.09,0,0,0,2-2.48Z"/><path d="M234,170.19c-5.48-1.7-8.61-6.93-7-12.25s7.21-7.87,12.69-6.17,8.59,6.92,6.92,12.27S239.47,171.88,234,170.19Zm1.12-3.61c3.5,1.09,7.18-.51,8.14-3.6s-1.16-6.52-4.65-7.61-7.2.5-8.18,3.61S231.62,165.48,235.14,166.58Z"/><path d="M208.38,193.49l4.63-5.64,15.23,12.51L223.62,206c-3.48,4.24-8.56,4.47-13.26.62S205,197.67,208.38,193.49Zm12.53,10.3,2.26-2.75L213.34,193l-2.26,2.75c-2.83,3.45-.17,6.52,1.68,8C215,205.58,218.23,207.06,220.92,203.79Z"/><path d="M178.26,218.83l3.26-1.91,3.82,6.52,11.86,7.15-3.65,2.14-7.94-5.13.56,9.45-3.65,2.14-.43-13.84Z"/><path d="M100.2,242.82A116.38,116.38,0,0,0,116,245.46l.65-3.74a112.5,112.5,0,0,1-15.78-2.64Z"/><path d="M206.72,47.69a113,113,0,0,1,10.46,12.1L220,57.28a116.79,116.79,0,0,0-10.47-12.1Z"/></svg>