<?xml version="1.0" encoding="UTF-8"?> <!-- Creator: CorelDRAW 2017 --> <svg xmlns="http://www.w3.org/2000/svg" xmlns:xlink="http://www.w3.org/1999/xlink" xml:space="preserve" width="1.10999in" height="0.713331in" style="shape-rendering:geometricPrecision; text-rendering:geometricPrecision; image-rendering:optimizeQuality; fill-rule:evenodd; clip-rule:evenodd" viewBox="0 0 1109.99 713.33"> <defs> <style type="text/css"> <![CDATA[ .str0 {stroke:#191A1B;stroke-width:3;stroke-miterlimit:2.61313} .fil0 {fill:#191A1B;fill-rule:nonzero} ]]> </style> </defs> <g id="Layer_x0020_1"> <metadata id="CorelCorpID_0Corel-Layer"></metadata> <path class="fil0 str0" d="M233.49 640.73c0,-0.59 0.15,-0.67 0.67,-0.67 6.17,-0.3 7.14,-2.01 7.14,-8.11 0.08,-5.36 0.08,-13.99 0.08,-30.5 0,-7.44 -2.31,-8.56 -5.95,-8.63 -1.56,-0.07 -1.71,-0.07 -1.78,-0.74 0,-1.86 0,-1.93 0.74,-1.93 1.63,0 9.59,0.15 11.38,0.15l9.67 -0.15c4.91,0 9,0.52 12.35,2.6 2.68,1.71 7.07,5.43 7.07,12.05 0,3.35 -1.26,5.43 -1.71,6.1 -2.68,4.02 -6.32,5.2 -11.98,6.77 1.78,2.23 10.71,12.72 11.83,14.06 6.77,8.33 6.99,8.33 11.46,8.33 0.67,0 0.74,0.22 0.74,2.01 -0.15,0.59 -0.22,0.59 -1.11,0.59 -2.16,0 -4.31,-0.07 -6.47,-0.07 -1.64,0 -3.28,0.07 -4.91,0.07 -0.37,0 -0.52,-0.07 -0.82,-0.44 -1.49,-1.64 -12.13,-15.85 -14.5,-18.82 -3.65,-4.54 -3.87,-4.91 -8.78,-4.84 0,3.87 -0.15,10.04 -0.07,13.91 0.15,5.65 2.16,7.44 7.14,7.59 0.52,0 0.59,0.07 0.67,0.59 0,1.78 0,2.01 -0.59,2.01 -3.65,-0.22 -7.29,-0.22 -10.93,-0.3 -3.57,0 -7.07,0.22 -10.64,0.3 -0.59,0 -0.67,-0.07 -0.67,-0.59l0 -1.34zm15.1 -24.4l0 0c1.64,0.22 3.28,0.3 4.91,0.3 9.3,0 13.46,-5.28 13.46,-12.13 0,-3.2 -1.26,-6.84 -3.42,-9.07 -2.6,-2.61 -6.47,-3.05 -10.12,-3.05 -1.64,0 -2.9,0.07 -4.83,0.22l0 23.73z"></path> <path class="fil0 str0" d="M298.25 592.98c-1.56,-0.08 -1.71,-0.08 -1.71,-0.82 0,-1.78 0,-2 0.59,-2 1.11,0 10.64,0.3 12.27,0.3 2.76,0 8.63,-0.3 9.67,-0.3 0.59,0 0.59,0.22 0.59,2.23 -0.07,0.52 -0.15,0.6 -0.97,0.6 -2.97,0.22 -3.65,0.44 -4.46,1.04 -2.45,1.93 -2.45,3.72 -2.45,14.88 0,18.96 0.07,21.12 0.22,23.35 0.3,6.84 2.68,7.29 6.99,7.66 0.59,0.07 0.67,0.15 0.74,0.67 0,1.94 0,2.08 -0.74,2.08 -1.49,0 -8.93,-0.22 -10.56,-0.22 -3.8,0.08 -7.66,0.15 -11.45,0.22 -0.6,0 -0.6,-0.22 -0.6,-2.08 0.07,-0.52 0.07,-0.67 0.82,-0.74 4.83,-0.22 6.77,-1.34 7.07,-6.77 0.15,-2.23 0.22,-13.54 0.22,-17.03 0,-3.2 0,-17.7 -0.74,-19.79 -0.89,-2.75 -2.98,-3.04 -5.51,-3.27z"></path> <path class="fil0 str0" d="M349.19 605.76c3.72,9.23 7.51,18.52 10.78,27.68 1.56,-3.13 3.87,-8.26 5.36,-11.39 3.05,-6.32 5.72,-12.72 8.4,-19.41 0.89,-2.08 1.93,-4.76 1.93,-6.77 0,-2.75 -2.38,-2.9 -4.02,-3.05 -0.74,0 -0.81,-0.07 -0.89,-0.74 0,-1.79 0,-1.93 0.75,-1.93 1.11,0.07 6.02,0.07 6.39,0.07 2.38,0 6.17,-0.15 8.48,-0.07 0.67,0 0.67,0.22 0.67,2 0,0.15 0,0.37 -0.15,0.52 -0.07,0.07 -1.41,0.22 -1.41,0.22 -4.61,0.59 -6.99,6.1 -7.88,8.11 -5.73,13.46 -6.4,14.95 -10.42,23.51 -0.89,1.93 -5.43,11.46 -6.47,13.61 -1.19,2.68 -1.41,3.13 -2.23,4.76 -0.52,0.96 -0.59,1.11 -1.26,1.11 -1.11,0 -1.19,-0.3 -2.08,-2.6 -4.24,-11.9 -13.69,-34.59 -15.62,-38.98 -2.9,-6.32 -4.31,-9.44 -9.37,-9.6 -0.6,0 -0.67,-0.07 -0.67,-0.59 0,-1.86 0,-2.08 0.59,-2.08 4.84,0.22 9.74,0.15 14.58,0.15 2.53,0 5.06,-0.07 7.59,-0.15 0.67,0 0.67,0.3 0.67,2 0,0.6 -0.3,0.6 -0.74,0.6 -2.3,0.15 -5.58,0.3 -5.58,4.76 0,1.71 0.52,3.05 2.61,8.25z"></path> <path class="fil0 str0" d="M410.24 613.43c6.24,0.07 7.81,0.07 9.67,-1.19 0.96,-0.67 3.2,-2.98 3.42,-7.44 0,-0.67 0.07,-0.74 0.67,-0.74 1.78,0 2.01,0 2.01,0.74 0,3.35 -0.07,6.62 -0.15,9.97 0,3.35 0,6.62 0.15,9.97 0,0.52 -0.07,0.59 -0.52,0.74 -1.94,0 -2.16,0 -2.16,-0.81 -0.22,-2.38 -0.82,-4.98 -2.46,-6.84 -1.71,-1.93 -2.53,-1.93 -10.63,-2.09l0 15.18c0.07,7.14 1.78,9.15 12.87,9.15 7.44,0 10.64,-2.01 12.57,-11.23 0.15,-0.52 0.22,-0.67 0.82,-0.67 1.94,0 2.16,0 2.16,0.74 0,0.37 -0.59,10.63 -0.97,12.27 -0.37,1.49 -0.74,1.49 -3.72,1.49 -3.94,0 -23.28,-0.22 -27.67,-0.22 -1.49,0 -8.93,0.22 -10.56,0.22 -0.59,0 -0.59,-0.22 -0.59,-0.59 0,-1.93 0,-2.16 0.74,-2.16 5.21,-0.3 6.69,-1.56 6.92,-7.96 0.22,-6.03 0.22,-15.85 0.22,-22.84 0,-15.25 -0.15,-15.62 -7.29,-16.22 -0.44,-0.07 -0.59,-0.07 -0.59,-0.59 0,-1.93 0,-2.15 0.67,-2.15 3.72,0.07 7.51,0.07 11.23,0.07 2.38,0 14.13,-0.07 16.81,-0.07l8.56 0c0.67,0 1.41,0.07 1.78,0.74 0.45,0.89 0.97,8.41 0.97,9.52 0,0.67 -0.15,0.75 -0.67,0.82 -1.64,0 -1.78,0 -2.01,-0.67 -1.79,-5.43 -2.68,-7.96 -15.55,-7.96 -2.38,0 -4.09,0.15 -6.69,0.3l0 20.53z"></path> <path class="fil0 str0" d="M452.17 640.73c0,-0.59 0.15,-0.67 0.67,-0.67 6.18,-0.3 7.14,-2.01 7.14,-8.11 0.08,-5.36 0.08,-13.99 0.08,-30.5 0,-7.44 -2.31,-8.56 -5.95,-8.63 -1.56,-0.07 -1.71,-0.07 -1.79,-0.74 0,-1.86 0,-1.93 0.74,-1.93 1.64,0 9.59,0.15 11.38,0.15l9.67 -0.15c4.91,0 9,0.52 12.35,2.6 2.68,1.71 7.07,5.43 7.07,12.05 0,3.35 -1.26,5.43 -1.71,6.1 -2.68,4.02 -6.32,5.2 -11.98,6.77 1.78,2.23 10.71,12.72 11.83,14.06 6.77,8.33 6.99,8.33 11.45,8.33 0.67,0 0.74,0.22 0.74,2.01 -0.15,0.59 -0.22,0.59 -1.11,0.59 -2.16,0 -4.31,-0.07 -6.47,-0.07 -1.63,0 -3.27,0.07 -4.91,0.07 -0.37,0 -0.52,-0.07 -0.81,-0.44 -1.49,-1.64 -12.13,-15.85 -14.51,-18.82 -3.65,-4.54 -3.87,-4.91 -8.78,-4.84 0,3.87 -0.15,10.04 -0.07,13.91 0.15,5.65 2.16,7.44 7.14,7.59 0.52,0 0.59,0.07 0.67,0.59 0,1.78 0,2.01 -0.59,2.01 -3.65,-0.22 -7.29,-0.22 -10.94,-0.3 -3.57,0 -7.07,0.22 -10.64,0.3 -0.59,0 -0.67,-0.07 -0.67,-0.59l0 -1.34zm15.1 -24.4l0 0c1.64,0.22 3.27,0.3 4.91,0.3 9.3,0 13.46,-5.28 13.46,-12.13 0,-3.2 -1.26,-6.84 -3.42,-9.07 -2.6,-2.61 -6.47,-3.05 -10.11,-3.05 -1.64,0 -2.9,0.07 -4.83,0.22l0 23.73z"></path> <polygon class="fil0 str0" points="555.67,642.66 551.29,642.66 551.29,623.25 531.8,623.25 531.8,618.78 551.29,618.78 551.29,599.44 555.67,599.44 555.67,618.78 575.09,618.78 575.09,623.25 555.67,623.25 "></polygon> <path class="fil0 str0" d="M650.64 632.84c0.81,-2.45 1.63,-4.83 2.53,-7.29 1.19,-3.42 2.53,-6.77 3.72,-10.19 0.74,-1.93 5.13,-13.98 5.13,-18 0,-4.38 -5.13,-4.54 -6.84,-4.61 -0.67,0 -0.67,-0.22 -0.67,-2.01 0,-0.45 0,-0.59 0.67,-0.59 1.34,0 7.59,0.15 9,0.15 2.97,0 5.88,-0.07 8.85,-0.15 0.67,0 0.67,0.22 0.67,0.74 0,1.71 0,1.86 -0.67,1.93 -5.88,0.52 -6.62,2.9 -8.18,7.52 -3.2,9.97 -6.55,19.78 -10.34,29.53 -1.34,3.65 -1.71,4.46 -4.46,12.2 -0.67,2.01 -0.74,2.23 -1.49,2.23 -1.41,0 -2.16,-1.19 -2.45,-2.45 -1.26,-5.43 -2.53,-9.3 -4.54,-15.32 -5.65,-16.67 -6.4,-19.04 -8.04,-24.4 -0.89,3.13 -1.79,6.24 -2.75,9.3 -1.49,4.84 -9.52,27.38 -10.26,30.2 -0.59,2.3 -0.67,2.53 -1.49,2.53 -0.3,0 -0.59,-0.07 -0.97,-0.3 -1.04,-0.44 -1.49,-0.82 -2.01,-2.98 -0.52,-1.93 -1.04,-4.16 -3.05,-10.56 -2.38,-7.51 -4.91,-14.95 -7.37,-22.46 -0.74,-2.46 -1.56,-4.91 -2.38,-7.29 -1.86,-5.43 -3.13,-7.52 -7.3,-7.67 -1.33,-0.07 -1.48,-0.07 -1.48,-0.59 0,-1.93 0,-2.15 0.67,-2.15 3.64,0.15 7.29,0.22 10.94,0.22 1.48,0 9,-0.22 10.71,-0.22 0.67,0 0.67,0.22 0.67,2 -0.07,0.67 -0.22,0.67 -0.89,0.67 -1.79,0 -5.43,0.07 -5.43,4.39 0,1.71 0.6,3.72 0.89,4.91 1.2,4.31 7.44,25.37 8.7,30.13 3.35,-9.52 5.95,-17.03 8.48,-24.92 1.94,-6.17 3.79,-12.12 4.98,-15.47 0.89,-2.38 0.96,-2.6 1.64,-2.6 0.74,0 0.81,0.15 0.97,0.74 2.53,8.93 7.66,22.76 10.48,31.54 0.67,2 1.26,4.09 1.86,6.17l1.49 5.13z"></path> <path class="fil0 str0" d="M734.44 616.7c0,16.07 -12.12,27.22 -27.89,27.22 -13.31,0 -27.67,-9.22 -27.67,-27.82 0,-16.66 13.17,-27.15 27.89,-27.22 13.98,0 27.67,9.89 27.67,27.81zm-46.26 -0.52l0 0c0,17.63 10.26,24.99 18.45,24.99 10.93,0 18.67,-10.94 18.67,-24.25 0,-9.07 -2.82,-15.4 -6.47,-19.64 -1.93,-2.23 -6.09,-6.24 -12.94,-5.8 -10.11,0.52 -17.7,10.49 -17.7,24.7z"></path> <path class="fil0 str0" d="M753.09 603.98c0,-8.26 -0.45,-10.49 -6.18,-11.01 -1.56,-0.15 -1.71,-0.15 -1.78,-0.82 0,-1.86 0,-2 0.59,-2 3.72,0 7.51,0.15 11.23,0.15 3.57,-0.07 7.14,-0.07 10.71,-0.15 0.74,0 0.74,0.15 0.74,2 0,0.67 0,0.67 -1.79,0.82 -2.45,0.3 -4.39,0.44 -5.43,3.2 -0.82,2.23 -0.89,2.9 -0.89,24.77 0,2.68 0,11.08 0.44,13.17 0.97,5.43 5.81,6.02 10.42,6.02 8.78,0 12.57,-1.12 15.77,-12.43 0.15,-0.67 0.22,-0.89 0.82,-0.89 2.23,0 2.45,0 2.45,0.59 0,0.52 -0.89,6.03 -2.08,12.57 -0.22,1.27 -0.52,2.68 -2.75,2.68 -11.38,0 -28.79,-0.3 -32.58,-0.3 -1.63,0 -5.88,0.3 -6.62,0.3 -0.6,0 -0.75,-0.07 -0.82,-0.15 -0.15,-0.15 -0.15,-1.26 -0.15,-1.94 0,-0.67 0.15,-0.67 0.74,-0.67 3.79,0 5.58,-1.34 6.25,-3.13 0.74,-1.78 0.74,-3.34 0.89,-12.35l0 -20.45z"></path> <path class="fil0 str0" d="M837.78 590.15c0.6,0 1.27,0 1.71,0.67 0.67,1.04 1.11,9.44 1.11,10.34 0,0.52 -0.22,0.59 -0.67,0.67 -1.56,0 -1.71,0 -1.85,-0.67 -1.64,-6.55 -4.09,-8.48 -16.96,-8.48 -1.85,0 -3.2,0.15 -5.35,0.3l0 22.24c4.61,0.07 7.29,0 8.93,-0.75 2.3,-1.12 3.94,-3.57 4.24,-7.81 0.08,-0.59 0.15,-0.67 0.67,-0.74 1.79,0 2.01,0 2.01,0.52 0,1.49 -0.3,8.48 -0.3,10.12 0.07,3.05 0.07,6.09 0.15,9.15 0,0.67 -0.15,0.67 -0.6,0.74 -1.71,0 -1.93,0 -2,-0.67 -0.07,-0.81 -0.15,-1.56 -0.52,-2.75 -1.78,-5.43 -5.35,-5.5 -12.65,-5.5l0 13.61c0.3,6.18 0.67,8.33 6.85,8.63 1.71,0.15 1.93,0.15 2.08,0.67 0,2.01 -0.07,2.23 -0.74,2.23 -3.94,-0.15 -7.81,-0.22 -11.75,-0.22 -1.56,0 -9.3,0.22 -11.01,0.22 -0.45,0 -0.52,-0.07 -0.59,-0.59 0,-1.93 0,-2.16 0.81,-2.16 4.69,0 5.73,-1.71 6.17,-2.83 0.82,-1.93 0.97,-4.17 0.97,-26.78 0,-16.66 -0.07,-16.66 -7.14,-17.48 -0.74,0 -0.74,-0.22 -0.74,-2.16 0,-0.59 0.3,-0.59 0.59,-0.59l0.07 0c2.53,0.22 15.55,0.22 19.41,0.22l12.28 -0.15 4.83 0z"></path> <path class="fil0 str0" d="M893.22 48.44l0 -1.96 104.27 0 0 1.96 -2.45 0c-28.83,0 -47.24,32.66 -57.65,71.84l-100.6 383.33 -22.68 0 -99.38 -359.16 -101.2 359.16 -22.7 0 -123.28 -455.17 -34.35 0 0 -1.96 127.59 0 0 1.96 -40.48 0 106.11 399.66 87.11 -308.88 -25.15 -90.78 -34.35 0 0 -1.96 124.52 0 0 1.96 -40.5 0 110.41 400.96 86.48 -329.78c10.44,-39.19 6.15,-71.19 -37.41,-71.19l-4.29 0z"></path> <path class="fil0 str0" d="M473.77 444.82l0 13.99c0,18.66 -9.33,33.29 -23.98,33.29 -19.98,0 -25.31,-19.97 -25.31,-59.94 0,-85.26 -37.31,-140.54 -121.9,-147.21 81.28,-7.99 141.88,-56.61 141.88,-121.23 0,-69.94 -59.95,-117.24 -157.2,-117.24l-191.16 0 0 2.01 41.96 0 0 0.05 54.63 0 0 -0.05 79.93 0c78.6,0 113.91,52.62 113.91,117.22 0,66.63 -33.96,118.58 -116.57,118.58l-73.06 0 0 1.99 73.73 0c85.27,0 101.91,57.28 101.91,145.87 0,51.3 8.65,87.26 52.61,87.26 37.3,0 50.63,-31.96 50.63,-60.61l0 -13.99 -1.99 0z"></path> </g> </svg> 