<?xml version="1.0" encoding="UTF-8" standalone="no"?>
<svg
   xmlns:dc="http://purl.org/dc/elements/1.1/"
   xmlns:cc="http://creativecommons.org/ns#"
   xmlns:rdf="http://www.w3.org/1999/02/22-rdf-syntax-ns#"
   xmlns:svg="http://www.w3.org/2000/svg"
   xmlns="http://www.w3.org/2000/svg"
   viewBox="0 0 942.71997 258"
   height="258"
   width="942.71997"
   xml:space="preserve"
   id="svg2"
   version="1.1"><metadata
     id="metadata8"><rdf:RDF><cc:Work
         rdf:about=""><dc:format>image/svg+xml</dc:format><dc:type
           rdf:resource="http://purl.org/dc/dcmitype/StillImage" /></cc:Work></rdf:RDF></metadata><defs
     id="defs6" /><g
     transform="matrix(1.3333333,0,0,-1.3333333,0,258)"
     id="g10"><g
       transform="scale(0.1)"
       id="g12"><path
         id="path14"
         style="fill:#0c2755;fill-opacity:1;fill-rule:nonzero;stroke:none"
         d="M 3039.55,1882.92 V 798.52 c 0,-177.282 -143.71,-320.989 -321,-320.989 -177.28,0 -320.99,143.707 -320.99,320.989 v 1084.4 h -475 V 796 c 0,-439.609 356.37,-795.9882812 795.99,-795.9882812 439.62,0 796,356.3792812 796,795.9882812 v 1086.92 h -475" /><path
         id="path16"
         style="fill:#0c2755;fill-opacity:1;fill-rule:nonzero;stroke:none"
         d="M 4866.05,402.262 H 4276.23 V 1884.98 H 3801.28 V 0.0117188 H 5123.31 L 4866.05,402.262" /><path
         id="path18"
         style="fill:#0c2755;fill-opacity:1;fill-rule:nonzero;stroke:none"
         d="m 5784.81,504.039 c -62.21,25.031 -116.73,60.191 -163.57,105.422 -46.89,45.199 -84.03,98.527 -111.49,159.93 -27.48,61.39 -41.18,128.429 -41.18,201.121 0,72.718 13.7,139.738 41.18,201.148 27.46,61.38 64.6,114.7 111.49,159.93 46.84,45.21 101.36,80.36 163.57,105.43 62.16,25 128.01,37.53 197.47,37.53 69.48,0 135.3,-12.53 197.51,-37.53 62.19,-25.07 117.12,-60.22 164.78,-105.43 47.64,-45.23 85.21,-98.55 112.69,-159.93 27.45,-61.41 41.19,-128.43 41.19,-201.148 0,-106.621 -29.07,-200.313 -87.22,-281.09 l -72.78,76.988 h -501 L 6569.27,0.0117188 h 501.16 L 6755.33,330.789 c 77.52,83.961 136.9,180.109 178.11,288.371 41.18,108.192 61.79,225.371 61.79,351.352 0,135.708 -25.06,262.108 -75.13,379.258 -50.1,117.11 -119.96,219.32 -209.62,306.53 -89.66,87.25 -196.7,155.47 -321.07,204.75 -124.43,49.27 -260.13,73.92 -407.13,73.92 -148.62,0 -284.71,-24.65 -408.31,-73.92 -123.56,-49.28 -229.82,-117.5 -318.65,-204.75 -88.87,-87.21 -158.33,-189.42 -208.4,-306.53 -50.1,-117.15 -75.13,-243.55 -75.13,-379.258 0,-135.684 25.03,-262.102 75.13,-379.223 50.07,-117.148 119.53,-219.32 208.4,-306.551 88.83,-87.238 195.09,-155.508 318.65,-204.7497 123.6,-49.2578 259.69,-73.91017 408.31,-73.91017 88.84,0 173.28,9.31247 253.26,27.84377 6.57,1.539 12.92,3.3984 19.45,5.0078 L 5820.77,491.551 c -12.07,3.847 -24.16,7.719 -35.96,12.488" /><path
         id="path20"
         style="fill:#0c2755;fill-opacity:1;fill-rule:nonzero;stroke:none"
         d="m 474.949,1178.92 h 685.791 v 705.16 h 474.95 V 0.0117188 H 1160.74 V 758.621 H 474.949 V 0.0117188 H 0 L 0,1884.08 h 474.949 v -705.16" /></g></g></svg>
